<mxfile host="app.diagrams.net" agent="Mozilla/5.0 (Macintosh; Intel Mac OS X 10_15_7) AppleWebKit/537.36 (KHTML, like Gecko) Chrome/131.0.0.0 Safari/537.36" version="26.0.6">
  <diagram name="第 1 页" id="izp8Pm4jLJMSe67JTXpb">
    <mxGraphModel dx="589" dy="300" grid="1" gridSize="10" guides="1" tooltips="1" connect="1" arrows="1" fold="1" page="1" pageScale="1" pageWidth="827" pageHeight="1169" math="0" shadow="0">
      <root>
        <mxCell id="0" />
        <mxCell id="1" parent="0" />
        <mxCell id="DKYEslgWa8Cab13rM7Y5-69" value="" style="edgeStyle=orthogonalEdgeStyle;rounded=0;orthogonalLoop=1;jettySize=auto;html=1;fontSize=8;fontFamily=Times New Roman;" edge="1" parent="1" source="DKYEslgWa8Cab13rM7Y5-1" target="DKYEslgWa8Cab13rM7Y5-48">
          <mxGeometry relative="1" as="geometry" />
        </mxCell>
        <mxCell id="DKYEslgWa8Cab13rM7Y5-1" value="" style="shape=table;startSize=0;container=1;collapsible=0;childLayout=tableLayout;fontSize=8;fontFamily=Times New Roman;swimlaneLine=1;fillColor=#f8cecc;strokeColor=#b85450;" vertex="1" parent="1">
          <mxGeometry x="120" y="120" width="60" height="60" as="geometry" />
        </mxCell>
        <mxCell id="DKYEslgWa8Cab13rM7Y5-2" style="shape=tableRow;horizontal=0;startSize=0;swimlaneHead=0;swimlaneBody=0;strokeColor=inherit;top=0;left=0;bottom=0;right=0;collapsible=0;dropTarget=0;fillColor=none;points=[[0,0.5],[1,0.5]];portConstraint=eastwest;fontSize=8;fontFamily=Times New Roman;" vertex="1" parent="DKYEslgWa8Cab13rM7Y5-1">
          <mxGeometry width="60" height="15" as="geometry" />
        </mxCell>
        <mxCell id="DKYEslgWa8Cab13rM7Y5-3" value="0" style="shape=partialRectangle;html=1;whiteSpace=wrap;connectable=0;strokeColor=inherit;overflow=hidden;fillColor=none;top=0;left=0;bottom=0;right=0;pointerEvents=1;fontSize=8;fontFamily=Times New Roman;" vertex="1" parent="DKYEslgWa8Cab13rM7Y5-2">
          <mxGeometry width="15" height="15" as="geometry">
            <mxRectangle width="15" height="15" as="alternateBounds" />
          </mxGeometry>
        </mxCell>
        <mxCell id="DKYEslgWa8Cab13rM7Y5-4" value="1" style="shape=partialRectangle;html=1;whiteSpace=wrap;connectable=0;strokeColor=inherit;overflow=hidden;fillColor=none;top=0;left=0;bottom=0;right=0;pointerEvents=1;fontSize=8;fontFamily=Times New Roman;" vertex="1" parent="DKYEslgWa8Cab13rM7Y5-2">
          <mxGeometry x="15" width="15" height="15" as="geometry">
            <mxRectangle width="15" height="15" as="alternateBounds" />
          </mxGeometry>
        </mxCell>
        <mxCell id="DKYEslgWa8Cab13rM7Y5-5" value="1" style="shape=partialRectangle;html=1;whiteSpace=wrap;connectable=0;strokeColor=inherit;overflow=hidden;fillColor=none;top=0;left=0;bottom=0;right=0;pointerEvents=1;fontSize=8;fontFamily=Times New Roman;" vertex="1" parent="DKYEslgWa8Cab13rM7Y5-2">
          <mxGeometry x="30" width="15" height="15" as="geometry">
            <mxRectangle width="15" height="15" as="alternateBounds" />
          </mxGeometry>
        </mxCell>
        <mxCell id="DKYEslgWa8Cab13rM7Y5-6" value="0" style="shape=partialRectangle;html=1;whiteSpace=wrap;connectable=0;strokeColor=inherit;overflow=hidden;fillColor=none;top=0;left=0;bottom=0;right=0;pointerEvents=1;fontSize=8;fontFamily=Times New Roman;" vertex="1" parent="DKYEslgWa8Cab13rM7Y5-2">
          <mxGeometry x="45" width="15" height="15" as="geometry">
            <mxRectangle width="15" height="15" as="alternateBounds" />
          </mxGeometry>
        </mxCell>
        <mxCell id="DKYEslgWa8Cab13rM7Y5-7" style="shape=tableRow;horizontal=0;startSize=0;swimlaneHead=0;swimlaneBody=0;strokeColor=inherit;top=0;left=0;bottom=0;right=0;collapsible=0;dropTarget=0;fillColor=none;points=[[0,0.5],[1,0.5]];portConstraint=eastwest;fontSize=8;fontFamily=Times New Roman;" vertex="1" parent="DKYEslgWa8Cab13rM7Y5-1">
          <mxGeometry y="15" width="60" height="16" as="geometry" />
        </mxCell>
        <mxCell id="DKYEslgWa8Cab13rM7Y5-8" value="1" style="shape=partialRectangle;html=1;whiteSpace=wrap;connectable=0;strokeColor=inherit;overflow=hidden;fillColor=none;top=0;left=0;bottom=0;right=0;pointerEvents=1;fontSize=8;fontFamily=Times New Roman;" vertex="1" parent="DKYEslgWa8Cab13rM7Y5-7">
          <mxGeometry width="15" height="16" as="geometry">
            <mxRectangle width="15" height="16" as="alternateBounds" />
          </mxGeometry>
        </mxCell>
        <mxCell id="DKYEslgWa8Cab13rM7Y5-9" value="3" style="shape=partialRectangle;html=1;whiteSpace=wrap;connectable=0;strokeColor=inherit;overflow=hidden;fillColor=none;top=0;left=0;bottom=0;right=0;pointerEvents=1;fontSize=8;fontFamily=Times New Roman;" vertex="1" parent="DKYEslgWa8Cab13rM7Y5-7">
          <mxGeometry x="15" width="15" height="16" as="geometry">
            <mxRectangle width="15" height="16" as="alternateBounds" />
          </mxGeometry>
        </mxCell>
        <mxCell id="DKYEslgWa8Cab13rM7Y5-10" value="3" style="shape=partialRectangle;html=1;whiteSpace=wrap;connectable=0;strokeColor=inherit;overflow=hidden;fillColor=none;top=0;left=0;bottom=0;right=0;pointerEvents=1;fontSize=8;fontFamily=Times New Roman;" vertex="1" parent="DKYEslgWa8Cab13rM7Y5-7">
          <mxGeometry x="30" width="15" height="16" as="geometry">
            <mxRectangle width="15" height="16" as="alternateBounds" />
          </mxGeometry>
        </mxCell>
        <mxCell id="DKYEslgWa8Cab13rM7Y5-11" value="1" style="shape=partialRectangle;html=1;whiteSpace=wrap;connectable=0;strokeColor=inherit;overflow=hidden;fillColor=none;top=0;left=0;bottom=0;right=0;pointerEvents=1;fontSize=8;fontFamily=Times New Roman;" vertex="1" parent="DKYEslgWa8Cab13rM7Y5-7">
          <mxGeometry x="45" width="15" height="16" as="geometry">
            <mxRectangle width="15" height="16" as="alternateBounds" />
          </mxGeometry>
        </mxCell>
        <mxCell id="DKYEslgWa8Cab13rM7Y5-12" style="shape=tableRow;horizontal=0;startSize=0;swimlaneHead=0;swimlaneBody=0;strokeColor=inherit;top=0;left=0;bottom=0;right=0;collapsible=0;dropTarget=0;fillColor=none;points=[[0,0.5],[1,0.5]];portConstraint=eastwest;fontSize=8;fontFamily=Times New Roman;" vertex="1" parent="DKYEslgWa8Cab13rM7Y5-1">
          <mxGeometry y="31" width="60" height="14" as="geometry" />
        </mxCell>
        <mxCell id="DKYEslgWa8Cab13rM7Y5-13" value="2" style="shape=partialRectangle;html=1;whiteSpace=wrap;connectable=0;strokeColor=inherit;overflow=hidden;fillColor=none;top=0;left=0;bottom=0;right=0;pointerEvents=1;fontSize=8;fontFamily=Times New Roman;" vertex="1" parent="DKYEslgWa8Cab13rM7Y5-12">
          <mxGeometry width="15" height="14" as="geometry">
            <mxRectangle width="15" height="14" as="alternateBounds" />
          </mxGeometry>
        </mxCell>
        <mxCell id="DKYEslgWa8Cab13rM7Y5-14" value="2" style="shape=partialRectangle;html=1;whiteSpace=wrap;connectable=0;strokeColor=inherit;overflow=hidden;fillColor=none;top=0;left=0;bottom=0;right=0;pointerEvents=1;fontSize=8;fontFamily=Times New Roman;" vertex="1" parent="DKYEslgWa8Cab13rM7Y5-12">
          <mxGeometry x="15" width="15" height="14" as="geometry">
            <mxRectangle width="15" height="14" as="alternateBounds" />
          </mxGeometry>
        </mxCell>
        <mxCell id="DKYEslgWa8Cab13rM7Y5-15" value="2" style="shape=partialRectangle;html=1;whiteSpace=wrap;connectable=0;strokeColor=inherit;overflow=hidden;fillColor=none;top=0;left=0;bottom=0;right=0;pointerEvents=1;fontSize=8;fontFamily=Times New Roman;" vertex="1" parent="DKYEslgWa8Cab13rM7Y5-12">
          <mxGeometry x="30" width="15" height="14" as="geometry">
            <mxRectangle width="15" height="14" as="alternateBounds" />
          </mxGeometry>
        </mxCell>
        <mxCell id="DKYEslgWa8Cab13rM7Y5-16" value="2" style="shape=partialRectangle;html=1;whiteSpace=wrap;connectable=0;strokeColor=inherit;overflow=hidden;fillColor=none;top=0;left=0;bottom=0;right=0;pointerEvents=1;fontSize=8;fontFamily=Times New Roman;" vertex="1" parent="DKYEslgWa8Cab13rM7Y5-12">
          <mxGeometry x="45" width="15" height="14" as="geometry">
            <mxRectangle width="15" height="14" as="alternateBounds" />
          </mxGeometry>
        </mxCell>
        <mxCell id="DKYEslgWa8Cab13rM7Y5-17" style="shape=tableRow;horizontal=0;startSize=0;swimlaneHead=0;swimlaneBody=0;strokeColor=inherit;top=0;left=0;bottom=0;right=0;collapsible=0;dropTarget=0;fillColor=none;points=[[0,0.5],[1,0.5]];portConstraint=eastwest;fontSize=8;fontFamily=Times New Roman;" vertex="1" parent="DKYEslgWa8Cab13rM7Y5-1">
          <mxGeometry y="45" width="60" height="15" as="geometry" />
        </mxCell>
        <mxCell id="DKYEslgWa8Cab13rM7Y5-18" value="0" style="shape=partialRectangle;html=1;whiteSpace=wrap;connectable=0;strokeColor=inherit;overflow=hidden;fillColor=none;top=0;left=0;bottom=0;right=0;pointerEvents=1;fontSize=8;fontFamily=Times New Roman;" vertex="1" parent="DKYEslgWa8Cab13rM7Y5-17">
          <mxGeometry width="15" height="15" as="geometry">
            <mxRectangle width="15" height="15" as="alternateBounds" />
          </mxGeometry>
        </mxCell>
        <mxCell id="DKYEslgWa8Cab13rM7Y5-19" value="1" style="shape=partialRectangle;html=1;whiteSpace=wrap;connectable=0;strokeColor=inherit;overflow=hidden;fillColor=none;top=0;left=0;bottom=0;right=0;pointerEvents=1;fontSize=8;fontFamily=Times New Roman;" vertex="1" parent="DKYEslgWa8Cab13rM7Y5-17">
          <mxGeometry x="15" width="15" height="15" as="geometry">
            <mxRectangle width="15" height="15" as="alternateBounds" />
          </mxGeometry>
        </mxCell>
        <mxCell id="DKYEslgWa8Cab13rM7Y5-20" value="3" style="shape=partialRectangle;html=1;whiteSpace=wrap;connectable=0;strokeColor=inherit;overflow=hidden;fillColor=none;top=0;left=0;bottom=0;right=0;pointerEvents=1;fontSize=8;fontFamily=Times New Roman;" vertex="1" parent="DKYEslgWa8Cab13rM7Y5-17">
          <mxGeometry x="30" width="15" height="15" as="geometry">
            <mxRectangle width="15" height="15" as="alternateBounds" />
          </mxGeometry>
        </mxCell>
        <mxCell id="DKYEslgWa8Cab13rM7Y5-21" value="2" style="shape=partialRectangle;html=1;whiteSpace=wrap;connectable=0;strokeColor=inherit;overflow=hidden;fillColor=none;top=0;left=0;bottom=0;right=0;pointerEvents=1;fontSize=8;fontFamily=Times New Roman;" vertex="1" parent="DKYEslgWa8Cab13rM7Y5-17">
          <mxGeometry x="45" width="15" height="15" as="geometry">
            <mxRectangle width="15" height="15" as="alternateBounds" />
          </mxGeometry>
        </mxCell>
        <mxCell id="DKYEslgWa8Cab13rM7Y5-126" value="" style="edgeStyle=orthogonalEdgeStyle;rounded=0;orthogonalLoop=1;jettySize=auto;html=1;fontSize=8;fontFamily=Times New Roman;" edge="1" parent="1" source="DKYEslgWa8Cab13rM7Y5-22" target="DKYEslgWa8Cab13rM7Y5-105">
          <mxGeometry relative="1" as="geometry" />
        </mxCell>
        <mxCell id="DKYEslgWa8Cab13rM7Y5-22" value="" style="shape=table;startSize=0;container=1;collapsible=0;childLayout=tableLayout;fontSize=8;fontFamily=Times New Roman;swimlaneLine=1;fillColor=#f8cecc;strokeColor=#b85450;" vertex="1" parent="1">
          <mxGeometry x="390" y="120" width="60" height="60" as="geometry" />
        </mxCell>
        <mxCell id="DKYEslgWa8Cab13rM7Y5-23" style="shape=tableRow;horizontal=0;startSize=0;swimlaneHead=0;swimlaneBody=0;strokeColor=inherit;top=0;left=0;bottom=0;right=0;collapsible=0;dropTarget=0;fillColor=none;points=[[0,0.5],[1,0.5]];portConstraint=eastwest;fontSize=8;fontFamily=Times New Roman;" vertex="1" parent="DKYEslgWa8Cab13rM7Y5-22">
          <mxGeometry width="60" height="15" as="geometry" />
        </mxCell>
        <mxCell id="DKYEslgWa8Cab13rM7Y5-24" value="0" style="shape=partialRectangle;html=1;whiteSpace=wrap;connectable=0;strokeColor=inherit;overflow=hidden;fillColor=none;top=0;left=0;bottom=0;right=0;pointerEvents=1;fontSize=8;fontFamily=Times New Roman;" vertex="1" parent="DKYEslgWa8Cab13rM7Y5-23">
          <mxGeometry width="15" height="15" as="geometry">
            <mxRectangle width="15" height="15" as="alternateBounds" />
          </mxGeometry>
        </mxCell>
        <mxCell id="DKYEslgWa8Cab13rM7Y5-25" value="1" style="shape=partialRectangle;html=1;whiteSpace=wrap;connectable=0;strokeColor=inherit;overflow=hidden;fillColor=none;top=0;left=0;bottom=0;right=0;pointerEvents=1;fontSize=8;fontFamily=Times New Roman;" vertex="1" parent="DKYEslgWa8Cab13rM7Y5-23">
          <mxGeometry x="15" width="15" height="15" as="geometry">
            <mxRectangle width="15" height="15" as="alternateBounds" />
          </mxGeometry>
        </mxCell>
        <mxCell id="DKYEslgWa8Cab13rM7Y5-26" value="1" style="shape=partialRectangle;html=1;whiteSpace=wrap;connectable=0;strokeColor=inherit;overflow=hidden;fillColor=none;top=0;left=0;bottom=0;right=0;pointerEvents=1;fontSize=8;fontFamily=Times New Roman;" vertex="1" parent="DKYEslgWa8Cab13rM7Y5-23">
          <mxGeometry x="30" width="15" height="15" as="geometry">
            <mxRectangle width="15" height="15" as="alternateBounds" />
          </mxGeometry>
        </mxCell>
        <mxCell id="DKYEslgWa8Cab13rM7Y5-27" value="0" style="shape=partialRectangle;html=1;whiteSpace=wrap;connectable=0;strokeColor=inherit;overflow=hidden;fillColor=none;top=0;left=0;bottom=0;right=0;pointerEvents=1;fontSize=8;fontFamily=Times New Roman;" vertex="1" parent="DKYEslgWa8Cab13rM7Y5-23">
          <mxGeometry x="45" width="15" height="15" as="geometry">
            <mxRectangle width="15" height="15" as="alternateBounds" />
          </mxGeometry>
        </mxCell>
        <mxCell id="DKYEslgWa8Cab13rM7Y5-28" style="shape=tableRow;horizontal=0;startSize=0;swimlaneHead=0;swimlaneBody=0;strokeColor=inherit;top=0;left=0;bottom=0;right=0;collapsible=0;dropTarget=0;fillColor=none;points=[[0,0.5],[1,0.5]];portConstraint=eastwest;fontSize=8;fontFamily=Times New Roman;" vertex="1" parent="DKYEslgWa8Cab13rM7Y5-22">
          <mxGeometry y="15" width="60" height="16" as="geometry" />
        </mxCell>
        <mxCell id="DKYEslgWa8Cab13rM7Y5-29" value="1" style="shape=partialRectangle;html=1;whiteSpace=wrap;connectable=0;strokeColor=inherit;overflow=hidden;fillColor=none;top=0;left=0;bottom=0;right=0;pointerEvents=1;fontSize=8;fontFamily=Times New Roman;" vertex="1" parent="DKYEslgWa8Cab13rM7Y5-28">
          <mxGeometry width="15" height="16" as="geometry">
            <mxRectangle width="15" height="16" as="alternateBounds" />
          </mxGeometry>
        </mxCell>
        <mxCell id="DKYEslgWa8Cab13rM7Y5-30" value="3" style="shape=partialRectangle;html=1;whiteSpace=wrap;connectable=0;strokeColor=inherit;overflow=hidden;fillColor=none;top=0;left=0;bottom=0;right=0;pointerEvents=1;fontSize=8;fontFamily=Times New Roman;" vertex="1" parent="DKYEslgWa8Cab13rM7Y5-28">
          <mxGeometry x="15" width="15" height="16" as="geometry">
            <mxRectangle width="15" height="16" as="alternateBounds" />
          </mxGeometry>
        </mxCell>
        <mxCell id="DKYEslgWa8Cab13rM7Y5-31" value="3" style="shape=partialRectangle;html=1;whiteSpace=wrap;connectable=0;strokeColor=inherit;overflow=hidden;fillColor=none;top=0;left=0;bottom=0;right=0;pointerEvents=1;fontSize=8;fontFamily=Times New Roman;" vertex="1" parent="DKYEslgWa8Cab13rM7Y5-28">
          <mxGeometry x="30" width="15" height="16" as="geometry">
            <mxRectangle width="15" height="16" as="alternateBounds" />
          </mxGeometry>
        </mxCell>
        <mxCell id="DKYEslgWa8Cab13rM7Y5-32" value="1" style="shape=partialRectangle;html=1;whiteSpace=wrap;connectable=0;strokeColor=inherit;overflow=hidden;fillColor=none;top=0;left=0;bottom=0;right=0;pointerEvents=1;fontSize=8;fontFamily=Times New Roman;" vertex="1" parent="DKYEslgWa8Cab13rM7Y5-28">
          <mxGeometry x="45" width="15" height="16" as="geometry">
            <mxRectangle width="15" height="16" as="alternateBounds" />
          </mxGeometry>
        </mxCell>
        <mxCell id="DKYEslgWa8Cab13rM7Y5-33" style="shape=tableRow;horizontal=0;startSize=0;swimlaneHead=0;swimlaneBody=0;strokeColor=inherit;top=0;left=0;bottom=0;right=0;collapsible=0;dropTarget=0;fillColor=none;points=[[0,0.5],[1,0.5]];portConstraint=eastwest;fontSize=8;fontFamily=Times New Roman;" vertex="1" parent="DKYEslgWa8Cab13rM7Y5-22">
          <mxGeometry y="31" width="60" height="14" as="geometry" />
        </mxCell>
        <mxCell id="DKYEslgWa8Cab13rM7Y5-34" value="2" style="shape=partialRectangle;html=1;whiteSpace=wrap;connectable=0;strokeColor=inherit;overflow=hidden;fillColor=none;top=0;left=0;bottom=0;right=0;pointerEvents=1;fontSize=8;fontFamily=Times New Roman;" vertex="1" parent="DKYEslgWa8Cab13rM7Y5-33">
          <mxGeometry width="15" height="14" as="geometry">
            <mxRectangle width="15" height="14" as="alternateBounds" />
          </mxGeometry>
        </mxCell>
        <mxCell id="DKYEslgWa8Cab13rM7Y5-35" value="2" style="shape=partialRectangle;html=1;whiteSpace=wrap;connectable=0;strokeColor=inherit;overflow=hidden;fillColor=none;top=0;left=0;bottom=0;right=0;pointerEvents=1;fontSize=8;fontFamily=Times New Roman;" vertex="1" parent="DKYEslgWa8Cab13rM7Y5-33">
          <mxGeometry x="15" width="15" height="14" as="geometry">
            <mxRectangle width="15" height="14" as="alternateBounds" />
          </mxGeometry>
        </mxCell>
        <mxCell id="DKYEslgWa8Cab13rM7Y5-36" value="2" style="shape=partialRectangle;html=1;whiteSpace=wrap;connectable=0;strokeColor=inherit;overflow=hidden;fillColor=none;top=0;left=0;bottom=0;right=0;pointerEvents=1;fontSize=8;fontFamily=Times New Roman;" vertex="1" parent="DKYEslgWa8Cab13rM7Y5-33">
          <mxGeometry x="30" width="15" height="14" as="geometry">
            <mxRectangle width="15" height="14" as="alternateBounds" />
          </mxGeometry>
        </mxCell>
        <mxCell id="DKYEslgWa8Cab13rM7Y5-37" value="2" style="shape=partialRectangle;html=1;whiteSpace=wrap;connectable=0;strokeColor=inherit;overflow=hidden;fillColor=none;top=0;left=0;bottom=0;right=0;pointerEvents=1;fontSize=8;fontFamily=Times New Roman;" vertex="1" parent="DKYEslgWa8Cab13rM7Y5-33">
          <mxGeometry x="45" width="15" height="14" as="geometry">
            <mxRectangle width="15" height="14" as="alternateBounds" />
          </mxGeometry>
        </mxCell>
        <mxCell id="DKYEslgWa8Cab13rM7Y5-38" style="shape=tableRow;horizontal=0;startSize=0;swimlaneHead=0;swimlaneBody=0;strokeColor=inherit;top=0;left=0;bottom=0;right=0;collapsible=0;dropTarget=0;fillColor=none;points=[[0,0.5],[1,0.5]];portConstraint=eastwest;fontSize=8;fontFamily=Times New Roman;" vertex="1" parent="DKYEslgWa8Cab13rM7Y5-22">
          <mxGeometry y="45" width="60" height="15" as="geometry" />
        </mxCell>
        <mxCell id="DKYEslgWa8Cab13rM7Y5-39" value="0" style="shape=partialRectangle;html=1;whiteSpace=wrap;connectable=0;strokeColor=inherit;overflow=hidden;fillColor=none;top=0;left=0;bottom=0;right=0;pointerEvents=1;fontSize=8;fontFamily=Times New Roman;" vertex="1" parent="DKYEslgWa8Cab13rM7Y5-38">
          <mxGeometry width="15" height="15" as="geometry">
            <mxRectangle width="15" height="15" as="alternateBounds" />
          </mxGeometry>
        </mxCell>
        <mxCell id="DKYEslgWa8Cab13rM7Y5-40" value="1" style="shape=partialRectangle;html=1;whiteSpace=wrap;connectable=0;strokeColor=inherit;overflow=hidden;fillColor=none;top=0;left=0;bottom=0;right=0;pointerEvents=1;fontSize=8;fontFamily=Times New Roman;" vertex="1" parent="DKYEslgWa8Cab13rM7Y5-38">
          <mxGeometry x="15" width="15" height="15" as="geometry">
            <mxRectangle width="15" height="15" as="alternateBounds" />
          </mxGeometry>
        </mxCell>
        <mxCell id="DKYEslgWa8Cab13rM7Y5-41" value="3" style="shape=partialRectangle;html=1;whiteSpace=wrap;connectable=0;strokeColor=inherit;overflow=hidden;fillColor=none;top=0;left=0;bottom=0;right=0;pointerEvents=1;fontSize=8;fontFamily=Times New Roman;" vertex="1" parent="DKYEslgWa8Cab13rM7Y5-38">
          <mxGeometry x="30" width="15" height="15" as="geometry">
            <mxRectangle width="15" height="15" as="alternateBounds" />
          </mxGeometry>
        </mxCell>
        <mxCell id="DKYEslgWa8Cab13rM7Y5-42" value="2" style="shape=partialRectangle;html=1;whiteSpace=wrap;connectable=0;strokeColor=inherit;overflow=hidden;fillColor=none;top=0;left=0;bottom=0;right=0;pointerEvents=1;fontSize=8;fontFamily=Times New Roman;" vertex="1" parent="DKYEslgWa8Cab13rM7Y5-38">
          <mxGeometry x="45" width="15" height="15" as="geometry">
            <mxRectangle width="15" height="15" as="alternateBounds" />
          </mxGeometry>
        </mxCell>
        <mxCell id="DKYEslgWa8Cab13rM7Y5-48" value="" style="shape=table;startSize=0;container=1;collapsible=0;childLayout=tableLayout;fontSize=8;fontFamily=Times New Roman;swimlaneLine=1;fillColor=#f8cecc;strokeColor=#b85450;" vertex="1" parent="1">
          <mxGeometry x="240" y="134" width="30" height="31" as="geometry" />
        </mxCell>
        <mxCell id="DKYEslgWa8Cab13rM7Y5-49" style="shape=tableRow;horizontal=0;startSize=0;swimlaneHead=0;swimlaneBody=0;strokeColor=inherit;top=0;left=0;bottom=0;right=0;collapsible=0;dropTarget=0;fillColor=none;points=[[0,0.5],[1,0.5]];portConstraint=eastwest;fontSize=8;fontFamily=Times New Roman;" vertex="1" parent="DKYEslgWa8Cab13rM7Y5-48">
          <mxGeometry width="30" height="15" as="geometry" />
        </mxCell>
        <mxCell id="DKYEslgWa8Cab13rM7Y5-50" value="3" style="shape=partialRectangle;html=1;whiteSpace=wrap;connectable=0;strokeColor=inherit;overflow=hidden;fillColor=none;top=0;left=0;bottom=0;right=0;pointerEvents=1;fontSize=8;fontFamily=Times New Roman;" vertex="1" parent="DKYEslgWa8Cab13rM7Y5-49">
          <mxGeometry width="15" height="15" as="geometry">
            <mxRectangle width="15" height="15" as="alternateBounds" />
          </mxGeometry>
        </mxCell>
        <mxCell id="DKYEslgWa8Cab13rM7Y5-51" value="2" style="shape=partialRectangle;html=1;whiteSpace=wrap;connectable=0;strokeColor=inherit;overflow=hidden;fillColor=none;top=0;left=0;bottom=0;right=0;pointerEvents=1;fontSize=8;fontFamily=Times New Roman;" vertex="1" parent="DKYEslgWa8Cab13rM7Y5-49">
          <mxGeometry x="15" width="15" height="15" as="geometry">
            <mxRectangle width="15" height="15" as="alternateBounds" />
          </mxGeometry>
        </mxCell>
        <mxCell id="DKYEslgWa8Cab13rM7Y5-54" style="shape=tableRow;horizontal=0;startSize=0;swimlaneHead=0;swimlaneBody=0;strokeColor=inherit;top=0;left=0;bottom=0;right=0;collapsible=0;dropTarget=0;fillColor=none;points=[[0,0.5],[1,0.5]];portConstraint=eastwest;fontSize=8;fontFamily=Times New Roman;" vertex="1" parent="DKYEslgWa8Cab13rM7Y5-48">
          <mxGeometry y="15" width="30" height="16" as="geometry" />
        </mxCell>
        <mxCell id="DKYEslgWa8Cab13rM7Y5-55" value="2" style="shape=partialRectangle;html=1;whiteSpace=wrap;connectable=0;strokeColor=inherit;overflow=hidden;fillColor=none;top=0;left=0;bottom=0;right=0;pointerEvents=1;fontSize=8;fontFamily=Times New Roman;" vertex="1" parent="DKYEslgWa8Cab13rM7Y5-54">
          <mxGeometry width="15" height="16" as="geometry">
            <mxRectangle width="15" height="16" as="alternateBounds" />
          </mxGeometry>
        </mxCell>
        <mxCell id="DKYEslgWa8Cab13rM7Y5-56" value="3" style="shape=partialRectangle;html=1;whiteSpace=wrap;connectable=0;strokeColor=inherit;overflow=hidden;fillColor=none;top=0;left=0;bottom=0;right=0;pointerEvents=1;fontSize=8;fontFamily=Times New Roman;" vertex="1" parent="DKYEslgWa8Cab13rM7Y5-54">
          <mxGeometry x="15" width="15" height="16" as="geometry">
            <mxRectangle width="15" height="16" as="alternateBounds" />
          </mxGeometry>
        </mxCell>
        <mxCell id="DKYEslgWa8Cab13rM7Y5-105" value="" style="shape=table;startSize=0;container=1;collapsible=0;childLayout=tableLayout;fontSize=8;fontFamily=Times New Roman;swimlaneLine=1;fillColor=#f8cecc;strokeColor=#b85450;" vertex="1" parent="1">
          <mxGeometry x="530" y="120" width="30" height="31" as="geometry" />
        </mxCell>
        <mxCell id="DKYEslgWa8Cab13rM7Y5-106" style="shape=tableRow;horizontal=0;startSize=0;swimlaneHead=0;swimlaneBody=0;strokeColor=inherit;top=0;left=0;bottom=0;right=0;collapsible=0;dropTarget=0;fillColor=none;points=[[0,0.5],[1,0.5]];portConstraint=eastwest;fontSize=8;fontFamily=Times New Roman;" vertex="1" parent="DKYEslgWa8Cab13rM7Y5-105">
          <mxGeometry width="30" height="15" as="geometry" />
        </mxCell>
        <mxCell id="DKYEslgWa8Cab13rM7Y5-107" value="1.5" style="shape=partialRectangle;html=1;whiteSpace=wrap;connectable=0;strokeColor=inherit;overflow=hidden;fillColor=none;top=0;left=0;bottom=0;right=0;pointerEvents=1;fontSize=7;fontFamily=Times New Roman;" vertex="1" parent="DKYEslgWa8Cab13rM7Y5-106">
          <mxGeometry width="15" height="15" as="geometry">
            <mxRectangle width="15" height="15" as="alternateBounds" />
          </mxGeometry>
        </mxCell>
        <mxCell id="DKYEslgWa8Cab13rM7Y5-108" value="2" style="shape=partialRectangle;html=1;whiteSpace=wrap;connectable=0;strokeColor=inherit;overflow=hidden;fillColor=none;top=0;left=0;bottom=0;right=0;pointerEvents=1;fontSize=8;fontFamily=Times New Roman;" vertex="1" parent="DKYEslgWa8Cab13rM7Y5-106">
          <mxGeometry x="15" width="15" height="15" as="geometry">
            <mxRectangle width="15" height="15" as="alternateBounds" />
          </mxGeometry>
        </mxCell>
        <mxCell id="DKYEslgWa8Cab13rM7Y5-111" style="shape=tableRow;horizontal=0;startSize=0;swimlaneHead=0;swimlaneBody=0;strokeColor=inherit;top=0;left=0;bottom=0;right=0;collapsible=0;dropTarget=0;fillColor=none;points=[[0,0.5],[1,0.5]];portConstraint=eastwest;fontSize=8;fontFamily=Times New Roman;" vertex="1" parent="DKYEslgWa8Cab13rM7Y5-105">
          <mxGeometry y="15" width="30" height="16" as="geometry" />
        </mxCell>
        <mxCell id="DKYEslgWa8Cab13rM7Y5-112" value="1.25" style="shape=partialRectangle;html=1;whiteSpace=wrap;connectable=0;strokeColor=inherit;overflow=hidden;fillColor=none;top=0;left=0;bottom=0;right=0;pointerEvents=1;fontSize=7;fontFamily=Times New Roman;" vertex="1" parent="DKYEslgWa8Cab13rM7Y5-111">
          <mxGeometry width="15" height="16" as="geometry">
            <mxRectangle width="15" height="16" as="alternateBounds" />
          </mxGeometry>
        </mxCell>
        <mxCell id="DKYEslgWa8Cab13rM7Y5-113" value="2" style="shape=partialRectangle;html=1;whiteSpace=wrap;connectable=0;strokeColor=inherit;overflow=hidden;fillColor=none;top=0;left=0;bottom=0;right=0;pointerEvents=1;fontSize=8;fontFamily=Times New Roman;" vertex="1" parent="DKYEslgWa8Cab13rM7Y5-111">
          <mxGeometry x="15" width="15" height="16" as="geometry">
            <mxRectangle width="15" height="16" as="alternateBounds" />
          </mxGeometry>
        </mxCell>
      </root>
    </mxGraphModel>
  </diagram>
</mxfile>
